<svg xmlns="http://www.w3.org/2000/svg"  viewBox="0 0 72 72" width="50px" height="50px"><path d="M 25 11 C 20.029 11 16 15.029 16 20 L 16 52 C 16 56.971 20.029 61 25 61 L 47 61 C 51.971 61 56 56.971 56 52 L 56 31 L 42 31 C 38.686 31 36 28.314 36 25 L 36 11 L 25 11 z M 40 11.34375 L 40 25 C 40 26.105 40.896 27 42 27 L 55.65625 27 L 40 11.34375 z M 30.5 38 C 31.881 38 33 39.119 33 40.5 C 33 41.881 31.881 43 30.5 43 C 29.119 43 28 41.881 28 40.5 C 28 39.119 29.119 38 30.5 38 z M 40.550781 44.421875 C 41.173906 44.421125 41.797969 44.642391 42.292969 45.087891 L 48 50.220703 L 48 51 C 48 52.105 47.104 53 46 53 L 26 53 C 24.896 53 24 52.105 24 51 L 24 50.384766 L 27.808594 47.103516 C 28.780594 46.265516 30.219313 46.262656 31.195312 47.097656 L 33.966797 49.46875 L 38.810547 45.091797 C 39.305047 44.645297 39.927656 44.422625 40.550781 44.421875 z"/></svg>