<svg xmlns="http://www.w3.org/2000/svg"  viewBox="0 0 72 72" width="50px" height="50px"><path d="M 36 11.367188 C 23.583 11.367187 15 18.464063 15 30.789062 L 15 36.183594 C 15 36.183594 14 38.183 14 40.5 C 14 43.602 16.942328 46.090609 18.736328 46.974609 C 20.782328 55.506609 30.605 61 36 61 C 41.395 61 51.217672 55.505656 53.263672 46.972656 C 55.057672 46.089656 58 43.221141 58 40.119141 C 58 37.802141 57 36.183594 57 36.183594 L 57 30.789062 C 57 16.239062 46.076172 15.419922 46.076172 15.419922 C 46.076172 15.419922 42.993 11.367188 36 11.367188 z M 44.322266 28.566406 C 46.508266 30.423406 47.103359 36.531 47.568359 38 L 50 38 L 50 38.162109 C 50 38.162109 51 38.686953 51 40.001953 C 51 41.592953 47.808594 42.865234 47.808594 42.865234 C 47.043594 51.166234 38.502 53.984375 36 53.984375 C 33.498 53.984375 25.530078 51.083234 24.330078 42.865234 C 24.330078 42.865234 21 41.61625 21 40.28125 C 21 38.76525 22 38.085938 22 38.085938 L 22 38 L 24.806641 38 L 26.457031 33.695312 C 34.348031 33.577312 41.286266 31.426406 44.322266 28.566406 z"/></svg>