<svg xmlns="http://www.w3.org/2000/svg"  viewBox="0 0 72 72" width="50px" height="50px"><path d="M 36 11 C 22.142 11 11 20.443031 11 49.332031 C 14.611 54.326031 20.782859 57 25.130859 57 L 27.533203 57 C 30.065581 59.348866 33.053439 61 36 61 C 38.946561 61 41.934419 59.348866 44.466797 57 L 46.869141 57 C 51.217141 57 57.389 54.326031 61 49.332031 C 61 20.362031 49.859 11 36 11 z M 41.816406 33.46875 C 43.201406 35.14275 44.933 36.922703 47 38.470703 L 47 44.835938 C 47 48.440938 41.145 57 36 57 C 30.855 57 25 48.484891 25 44.837891 L 25 41.583984 C 32.634 40.749984 38.258406 38.03275 41.816406 33.46875 z"/></svg>