<svg xmlns="http://www.w3.org/2000/svg" viewBox="0 0 80 80">
  <path d="M20 15h12v12h-12zM32 15h12v12h-12zM44 15h12v12h-12zM14 27h12v12h-12zM26 27h12v12h-12zM38 27h12v12h-12zM50 27h12v12h-12zM20 39h12v12h-12zM32 39h12v12h-12zM44 39h12v12h-12zM26 51h12v12h-12zM38 51h12v12h-12zM32 63h12v12h-12z" fill="#ff6b81"/>
  <path d="M20 15h12v12h-12zM32 15h12v12h-12zM44 15h12v12h-12zM14 27h12v12h-12zM26 27h12v12h-12zM38 27h12v12h-12zM50 27h12v12h-12zM20 39h12v12h-12zM32 39h12v12h-12zM44 39h12v12h-12zM26 51h12v12h-12zM38 51h12v12h-12zM32 63h12v12h-12z" fill="#ff4757" opacity=".6" transform="translate(6 6)"/>
</svg>

